<svg class="svg-icon" style="width: 1em; height: 1em;vertical-align: middle;fill: currentColor;overflow: hidden;" viewBox="0 0 1024 1024" version="1.1" xmlns="http://www.w3.org/2000/svg"><path d="M512 0C229.215086 0 0 229.231543 0 512c0 282.784914 229.215086 512 512 512s512-229.215086 512-512C1024 229.231543 794.784914 0 512 0zM512 950.857143C269.999543 950.857143 73.142857 754.000457 73.142857 512 73.142857 270.017829 269.999543 73.142857 512 73.142857s438.857143 196.874971 438.857143 438.857143C950.857143 754.000457 754.000457 950.857143 512 950.857143z"  /><path d="M290.464914 406.070857C299.000686 381.928229 321.892571 365.714286 347.428571 365.714286c25.499429 0 48.393143 16.232229 56.963657 40.374857 5.321143 14.999771 19.428571 24.374857 34.464914 24.374857 4.072229 0 8.1792-0.696686 12.214857-2.1248 19.035429-6.749257 28.999314-27.642514 22.250057-46.677943C454.429257 328.374857 403.856457 292.571429 347.428571 292.571429c-56.464457 0-107.072 35.803429-125.893486 89.106286-6.749257 19.053714 3.214629 39.946971 22.286629 46.677943C262.893714 435.1616 283.7504 425.089829 290.464914 406.070857z"  /><path d="M676.571429 292.571429c-56.464457 0-107.072 35.803429-125.893486 89.106286-6.749257 19.053714 3.214629 39.946971 22.286629 46.677943 19.143314 6.804114 39.963429-3.267657 46.6432-22.286629C628.143543 381.928229 651.035429 365.714286 676.571429 365.714286c25.499429 0 48.393143 16.232229 56.963657 40.374857 5.321143 14.999771 19.428571 24.374857 34.464914 24.374857 4.072229 0 8.1792-0.696686 12.214857-2.1248 19.035429-6.749257 28.999314-27.642514 22.250057-46.677943C783.572114 328.374857 732.999314 292.571429 676.571429 292.571429z"  /><path d="M256 621.714286l36.571429 0c0 121.000229 98.428343 219.428571 219.428571 219.428571s219.428571-98.428343 219.428571-219.428571l36.571429 0 0-36.571429L256 585.142857 256 621.714286zM658.285714 621.714286c0 80.643657-65.607314 146.285714-146.285714 146.285714s-146.285714-65.642057-146.285714-146.285714L658.285714 621.714286z"  /></svg>