<svg class="svg-icon" style="width: 1em; height: 1em;vertical-align: middle;fill: currentColor;overflow: hidden;" viewBox="0 0 1024 1024" version="1.1" xmlns="http://www.w3.org/2000/svg"><path d="M333.8 884H208c-27 0-49-22-49-49V571c0-27 22-49 49-49h125.9c27 0 49 22 49 49v264c-0.1 27-22 49-49.1 49zM231 812h79.8V594H231v218zM576.5 884h-130c-25.9 0-46.9-21-46.9-46.9V654.9c0-25.9 21-46.9 46.9-46.9h130c25.9 0 46.9 21 46.9 46.9v182.2c0 25.9-21 46.9-46.9 46.9z m-104.9-72h79.8V680h-79.8v132zM811.9 884H692.2c-28.7 0-52.1-23.4-52.1-52.1V421.1c0-28.7 23.4-52.1 52.1-52.1h119.7c28.7 0 52.1 23.4 52.1 52.1V832c0 28.6-23.4 52-52.1 52z m-99.7-72H792V441h-79.8v371zM206 503c-10 0-20-4.2-27.2-12.3-13.1-15-11.5-37.7 3.5-50.8L355.5 289c13.6-11.8 33.7-11.8 47.3 0l100.4 87.5L772.4 142c15-13.1 37.7-11.5 50.8 3.5 13.1 15 11.5 37.7-3.5 50.8l-292.9 255a36.025 36.025 0 0 1-47.3 0l-100.4-87.5-149.4 130.3c-6.9 6-15.3 8.9-23.7 8.9z"  /></svg>