<svg class="svg-icon" style="width: 1em;height: 1em;vertical-align: middle;fill: currentColor;overflow: hidden;" viewBox="0 0 1024 1024" version="1.1" xmlns="http://www.w3.org/2000/svg"><path d="M499 842c-44.11 0-80-35.89-80-80s35.89-80 80-80 80 35.89 80 80-35.89 80-80 80z m0-96c-8.82 0-16 7.18-16 16s7.18 16 16 16 16-7.18 16-16-7.18-16-16-16z"  /><path d="M546.17 960a31.98 31.98 0 0 1-17.51-5.22 31.976 31.976 0 0 1-14.19-22.43c-1.05-7.67-7.7-13.45-15.46-13.45s-14.41 5.78-15.46 13.45a31.994 31.994 0 0 1-40.43 26.43c-32.34-9.17-62.26-26.46-86.52-50.01a31.99 31.99 0 0 1 2.64-48.22c6.1-4.74 7.78-13.39 3.9-20.1-3.88-6.72-12.2-9.59-19.37-6.67a32.015 32.015 0 0 1-43.12-21.84c-4.09-16.27-6.16-33.08-6.16-49.94s2.07-33.66 6.16-49.94a32.015 32.015 0 0 1 43.12-21.84c7.16 2.92 15.49 0.05 19.37-6.67 3.88-6.72 2.2-15.36-3.9-20.1a32.024 32.024 0 0 1-12.31-23.51 31.97 31.97 0 0 1 9.67-24.71c24.26-23.54 54.18-40.83 86.52-50.01a31.983 31.983 0 0 1 26.24 4 31.976 31.976 0 0 1 14.19 22.43c1.05 7.67 7.7 13.45 15.46 13.45s14.41-5.78 15.46-13.45a31.994 31.994 0 0 1 40.43-26.43c32.34 9.17 62.26 26.46 86.52 50.01a31.99 31.99 0 0 1-2.64 48.22c-6.1 4.74-7.77 13.39-3.9 20.11 3.88 6.72 12.21 9.59 19.37 6.67a32.015 32.015 0 0 1 43.12 21.84c4.09 16.27 6.16 33.08 6.16 49.94s-2.07 33.66-6.16 49.94a32.015 32.015 0 0 1-43.12 21.84c-7.16-2.92-15.49-0.05-19.37 6.67-3.88 6.72-2.2 15.36 3.9 20.1a32.024 32.024 0 0 1 12.31 23.51 31.97 31.97 0 0 1-9.67 24.71c-24.26 23.54-54.18 40.83-86.52 50.01-2.87 0.81-5.81 1.21-8.73 1.21zM499 854.9c25.85 0 49.28 12.6 63.92 32.26 4.29-2.2 8.46-4.61 12.51-7.24-9.69-22.51-8.89-49.1 4.02-71.47 12.92-22.38 35.55-36.37 59.89-39.23a144.76 144.76 0 0 0 0-14.46c-24.34-2.86-46.96-16.84-59.89-39.23-12.92-22.37-13.72-48.96-4.02-71.47-4.04-2.63-8.22-5.05-12.51-7.24-14.64 19.66-38.07 32.26-63.92 32.26s-49.28-12.6-63.92-32.26c-4.29 2.2-8.46 4.61-12.51 7.24 9.7 22.51 8.89 49.1-4.03 71.47-12.92 22.38-35.55 36.37-59.89 39.23a144.76 144.76 0 0 0 0 14.46c24.34 2.86 46.96 16.84 59.89 39.23 12.92 22.37 13.72 48.96 4.03 71.47 4.04 2.63 8.22 5.05 12.51 7.24 14.64-19.65 38.07-32.26 63.92-32.26zM801 384H513c-17.6 0-32-14.4-32-32s14.4-32 32-32h288c17.6 0 32 14.4 32 32s-14.4 32-32 32zM801 512H513c-17.6 0-32-14.4-32-32s14.4-32 32-32h288c17.6 0 32 14.4 32 32s-14.4 32-32 32z"  /><path d="M96.99 834A32 32 0 0 1 65 802V96c0-17.67 14.33-32 32-32h544c17.67 0 32 14.33 32 32v52c0 17.67-14.33 32-32 32s-32-14.33-32-32v-20H129v596.06l105.23-106.55A31.98 31.98 0 0 1 257 608h46.5c17.67 0 32 14.33 32 32s-14.33 32-32 32h-33.13l-150.6 152.49A32.005 32.005 0 0 1 96.99 834z"  /><path d="M929.01 960c-8.4 0-16.64-3.3-22.77-9.51L755.63 798H745c-17.67 0-32-14.33-32-32s14.33-32 32-32h24c8.56 0 16.75 3.43 22.77 9.51L897 850.06V254H417v289.5c0 17.67-14.33 32-32 32s-32-14.33-32-32V222c0-17.67 14.33-32 32-32h544c17.67 0 32 14.33 32 32v706c0 12.98-7.84 24.67-19.85 29.6-3.93 1.62-8.05 2.4-12.14 2.4z"  /></svg>