<svg class="svg-icon" style="width: 1em;height: 1em;vertical-align: middle;fill: currentColor;overflow: hidden;" viewBox="0 0 1024 1024" version="1.1" xmlns="http://www.w3.org/2000/svg"><path d="M851.683624 962.804205H178.385381c-61.990545 0-112.276582-50.177662-112.276583-112.168207V177.37388c0-62.02667 50.249912-112.204332 112.276583-112.204332h673.262118c61.918295 0 112.168207 50.177662 112.168207 112.204332v673.262118c0.036125 61.990545-50.249912 112.168207-112.132082 112.168207zM907.78579 177.37388c0-30.959148-25.179143-56.138291-56.138291-56.138291H178.385381c-31.031398 0-56.138291 25.179143-56.138291 56.138291v673.262118c0 30.959148 25.070768 56.138291 56.138291 56.138291h673.262118c30.959148 0 56.138291-25.179143 56.138291-56.138291V177.37388z m-213.390531 180.480632a28.069146 28.069146 0 1 0-48.660411-27.996895l-179.360756 310.747477-100.355324-92.624568c-10.693008-11.307133-28.394271-11.921259-39.665279-1.336626-11.307133 10.584633-11.921259 28.358146-1.336626 39.665279l128.279969 118.309462c10.584633 11.307133 28.394271 11.812884 39.665279 1.228251 3.395752-3.179002 201.433148-347.99238 201.433148-347.99238z" fill="#231815" /></svg>